# xmcd
#
# Track frame offsets:
#	150
#	14627
#	31462
#	51579
#	68600
#	87207
#	111791
#	133981
#	151547
#	170157
#
# Disc length: 2469 seconds
# Revision: 0
# Processed by: cddbd v1.5.2PL0 Copyright (c) Steve Scherf et al.
# Submitted via: dBpowerAMP V12.0
#
DISCID=8609a30a
DTITLE=Lauren Housley - The Beauty Of This Life
DYEAR=2017
DGENRE=Americana
TTITLE0=The Song I Sing
TTITLE1=The Waiting Game
TTITLE2=Why Must I Plead
TTITLE3=So Hard To Love You
TTITLE4=The Beauty Of This Life
TTITLE5=Sweet Surrender
TTITLE6=Show Me What Love Is
TTITLE7=One Step Closer
TTITLE8=You Can Feel It
TTITLE9=All You Need Is A Friend
EXTD=
EXTT0=
EXTT1=
EXTT2=
EXTT3=
EXTT4=
EXTT5=
EXTT6=
EXTT7=
EXTT8=
EXTT9=
PLAYORDER=
